<?xml version="1.0" encoding="UTF-8" standalone="no"?>
<!-- Created with Inkscape (http://www.inkscape.org/) -->

<svg
   xmlns:ns0="http://www.iki.fi/pav/software/textext/"
   xmlns:dc="http://purl.org/dc/elements/1.1/"
   xmlns:cc="http://creativecommons.org/ns#"
   xmlns:rdf="http://www.w3.org/1999/02/22-rdf-syntax-ns#"
   xmlns:svg="http://www.w3.org/2000/svg"
   xmlns="http://www.w3.org/2000/svg"
   xmlns:xlink="http://www.w3.org/1999/xlink"
   xmlns:sodipodi="http://sodipodi.sourceforge.net/DTD/sodipodi-0.dtd"
   xmlns:inkscape="http://www.inkscape.org/namespaces/inkscape"
   width="233.2043"
   height="320.09943"
   id="svg9335"
   sodipodi:version="0.32"
   inkscape:version="0.47 r22583"
   sodipodi:docname="spin_up_diagram.svg"
   inkscape:output_extension="org.inkscape.output.svg.inkscape"
   version="1.0">
  <sodipodi:namedview
     id="base"
     pagecolor="#ffffff"
     bordercolor="#666666"
     borderopacity="1.0"
     inkscape:pageopacity="0.0"
     inkscape:pageshadow="2"
     inkscape:zoom="1.4142136"
     inkscape:cx="243.00591"
     inkscape:cy="192.90536"
     inkscape:current-layer="layer1"
     inkscape:document-units="px"
     showgrid="false"
     inkscape:window-width="1280"
     inkscape:window-height="951"
     inkscape:window-x="0"
     inkscape:window-y="25"
     inkscape:snap-global="true"
     inkscape:window-maximized="1">
    <inkscape:grid
       enabled="true"
       visible="true"
       type="xygrid"
       id="grid9895"
       empspacing="5"
       snapvisiblegridlinesonly="true" />
  </sodipodi:namedview>
  <defs
     id="defs9337">
    <marker
       style="overflow:visible"
       id="TriangleOutL"
       refX="0"
       refY="0"
       orient="auto"
       inkscape:stockid="TriangleOutL">
      <path
         transform="scale(0.8,0.8)"
         style="fill-rule:evenodd;stroke:#000000;stroke-width:1pt;marker-start:none"
         d="m 5.77,0 -8.65,5 0,-10 8.65,5 z"
         id="path4313" />
    </marker>
    <marker
       inkscape:stockid="TriangleInM"
       orient="auto"
       refY="0"
       refX="0"
       id="TriangleInM"
       style="overflow:visible">
      <path
         id="path11073"
         d="m 5.77,0 -8.65,5 0,-10 8.65,5 z"
         style="fill-rule:evenodd;stroke:#000000;stroke-width:1pt;marker-start:none"
         transform="scale(-0.4,-0.4)" />
    </marker>
    <marker
       inkscape:stockid="TriangleInL"
       orient="auto"
       refY="0"
       refX="0"
       id="TriangleInL"
       style="overflow:visible">
      <path
         id="path11070"
         d="m 5.77,0 -8.65,5 0,-10 8.65,5 z"
         style="fill-rule:evenodd;stroke:#000000;stroke-width:1pt;marker-start:none"
         transform="scale(-0.8,-0.8)" />
    </marker>
    <marker
       inkscape:stockid="Arrow1Sstart"
       orient="auto"
       refY="0"
       refX="0"
       id="Arrow1Sstart"
       style="overflow:visible">
      <path
         id="path10948"
         d="M 0,0 5,-5 -12.5,0 5,5 0,0 z"
         style="fill-rule:evenodd;stroke:#000000;stroke-width:1pt;marker-start:none"
         transform="matrix(0.2,0,0,0.2,1.2,0)" />
    </marker>
    <marker
       inkscape:stockid="Arrow1Mstart"
       orient="auto"
       refY="0"
       refX="0"
       id="Arrow1Mstart"
       style="overflow:visible">
      <path
         id="path10942"
         d="M 0,0 5,-5 -12.5,0 5,5 0,0 z"
         style="fill-rule:evenodd;stroke:#000000;stroke-width:1pt;marker-start:none"
         transform="matrix(0.4,0,0,0.4,4,0)" />
    </marker>
    <marker
       inkscape:stockid="Arrow1Lend"
       orient="auto"
       refY="0"
       refX="0"
       id="Arrow1Lend"
       style="overflow:visible">
      <path
         id="path10939"
         d="M 0,0 5,-5 -12.5,0 5,5 0,0 z"
         style="fill-rule:evenodd;stroke:#000000;stroke-width:1pt;marker-start:none"
         transform="matrix(-0.8,0,0,-0.8,-10,0)" />
    </marker>
    <marker
       inkscape:stockid="Arrow2Mstart"
       orient="auto"
       refY="0"
       refX="0"
       id="Arrow2Mstart"
       style="overflow:visible">
      <path
         id="path10960"
         style="font-size:12px;fill-rule:evenodd;stroke-width:0.625;stroke-linejoin:round"
         d="M 8.7185878,4.0337352 -2.2072895,0.01601326 8.7185884,-4.0017078 c -1.7454984,2.3720609 -1.7354408,5.6174519 -6e-7,8.035443 z"
         transform="scale(0.6,0.6)" />
    </marker>
    <marker
       inkscape:stockid="Arrow2Sstart"
       orient="auto"
       refY="0"
       refX="0"
       id="Arrow2Sstart"
       style="overflow:visible">
      <path
         id="path10966"
         style="font-size:12px;fill-rule:evenodd;stroke-width:0.625;stroke-linejoin:round"
         d="M 8.7185878,4.0337352 -2.2072895,0.01601326 8.7185884,-4.0017078 c -1.7454984,2.3720609 -1.7354408,5.6174519 -6e-7,8.035443 z"
         transform="matrix(0.3,0,0,0.3,-0.69,0)" />
    </marker>
    <marker
       inkscape:stockid="Arrow2Lstart"
       orient="auto"
       refY="0"
       refX="0"
       id="Arrow2Lstart"
       style="overflow:visible">
      <path
         id="path10954"
         style="font-size:12px;fill-rule:evenodd;stroke-width:0.625;stroke-linejoin:round"
         d="M 8.7185878,4.0337352 -2.2072895,0.01601326 8.7185884,-4.0017078 c -1.7454984,2.3720609 -1.7354408,5.6174519 -6e-7,8.035443 z"
         transform="matrix(1.1,0,0,1.1,1.1,0)" />
    </marker>
    <marker
       inkscape:stockid="Arrow2Mend"
       orient="auto"
       refY="0"
       refX="0"
       id="Arrow2Mend"
       style="overflow:visible">
      <path
         id="path10963"
         style="font-size:12px;fill-rule:evenodd;stroke-width:0.625;stroke-linejoin:round"
         d="M 8.7185878,4.0337352 -2.2072895,0.01601326 8.7185884,-4.0017078 c -1.7454984,2.3720609 -1.7354408,5.6174519 -6e-7,8.035443 z"
         transform="scale(-0.6,-0.6)" />
    </marker>
    <inkscape:perspective
       sodipodi:type="inkscape:persp3d"
       inkscape:vp_x="0 : 300 : 1"
       inkscape:vp_y="0 : 1000 : 0"
       inkscape:vp_z="800 : 300 : 1"
       inkscape:persp3d-origin="400 : 200 : 1"
       id="perspective9343" />
    <marker
       inkscape:stockid="TriangleInLS"
       orient="auto"
       refY="0"
       refX="0"
       id="TriangleInLS"
       style="overflow:visible">
      <path
         id="path5065"
         d="m 5.77,0 -8.65,5 0,-10 8.65,5 z"
         style="fill:#999999;fill-rule:evenodd;stroke:#999999;stroke-width:1pt;marker-start:none"
         transform="scale(-0.8,-0.8)" />
    </marker>
    <marker
       style="overflow:visible"
       id="TriangleOutL7"
       refX="0"
       refY="0"
       orient="auto"
       inkscape:stockid="TriangleOutL7">
      <path
         transform="scale(0.8,0.8)"
         style="fill:#999999;fill-rule:evenodd;stroke:#999999;stroke-width:1pt;marker-start:none"
         d="m 5.77,0 -8.65,5 0,-10 8.65,5 z"
         id="path5068" />
    </marker>
    <marker
       inkscape:stockid="TriangleInLg"
       orient="auto"
       refY="0"
       refX="0"
       id="TriangleInLg"
       style="overflow:visible">
      <path
         id="path5173"
         d="m 5.77,0 -8.65,5 0,-10 8.65,5 z"
         style="fill:#999999;fill-rule:evenodd;stroke:#999999;stroke-width:1pt;marker-start:none"
         transform="scale(-0.8,-0.8)" />
    </marker>
    <marker
       style="overflow:visible"
       id="TriangleOutLh"
       refX="0"
       refY="0"
       orient="auto"
       inkscape:stockid="TriangleOutLh">
      <path
         transform="scale(0.8,0.8)"
         style="fill:#999999;fill-rule:evenodd;stroke:#999999;stroke-width:1pt;marker-start:none"
         d="m 5.77,0 -8.65,5 0,-10 8.65,5 z"
         id="path5176" />
    </marker>
  </defs>
  <metadata
     id="metadata9340">
    <rdf:RDF>
      <cc:Work
         rdf:about="">
        <dc:format>image/svg+xml</dc:format>
        <dc:type
           rdf:resource="http://purl.org/dc/dcmitype/StillImage" />
        <dc:title />
      </cc:Work>
    </rdf:RDF>
  </metadata>
  <g
     transform="translate(-73.375001,-199.27785)"
     id="layer1"
     inkscape:label="Layer 1"
     inkscape:groupmode="layer">
    <g
       id="g5745"
       transform="matrix(0.67412204,0,0,0.67412204,23.911296,169.25361)">
      <g
         id="g9884">
        <rect
           style="fill:#bfffbf;fill-opacity:1;stroke:#000000;stroke-width:1.23698986;stroke-miterlimit:4;stroke-opacity:1;stroke-dasharray:none;stroke-dashoffset:0"
           id="rect9878"
           width="293.58575"
           height="288.52509"
           x="74.243713"
           y="147.23117" />
        <path
           sodipodi:type="arc"
           style="fill:#bfffbf;fill-opacity:1;stroke:#000000;stroke-width:1.25;stroke-miterlimit:4;stroke-opacity:1;stroke-dasharray:none;stroke-dashoffset:0"
           id="path9365"
           sodipodi:cx="219"
           sodipodi:cy="147.5"
           sodipodi:rx="147"
           sodipodi:ry="46.5"
           d="M 366,147.5 C 366,173.18124 300.18586,194 219,194 137.81414,194 72,173.18124 72,147.5 72,121.81876 137.81414,101 219,101 c 81.18586,0 147,20.81876 147,46.5 z"
           transform="translate(2,0)" />
        <path
           sodipodi:type="arc"
           style="fill:#bfffbf;fill-opacity:1;stroke:#000000;stroke-width:1.25;stroke-miterlimit:4;stroke-opacity:1;stroke-dasharray:none;stroke-dashoffset:0"
           id="path9876"
           sodipodi:cx="219"
           sodipodi:cy="147.5"
           sodipodi:rx="147"
           sodipodi:ry="46.5"
           d="M 366,147.5 C 366,173.18124 300.18586,194 219,194 137.81414,194 72,173.18124 72,147.5 72,121.81876 137.81414,101 219,101 c 81.18586,0 147,20.81876 147,46.5 z"
           transform="translate(2,286.5)" />
      </g>
      <path
         id="path9899"
         d="m 220.93029,46.555287 0.13942,98.389423"
         style="fill:none;stroke:#000000;stroke-width:1.523;stroke-linecap:butt;stroke-linejoin:miter;stroke-miterlimit:4;stroke-opacity:1;stroke-dasharray:none;marker-start:url(#Arrow2Mstart);marker-end:none" />
      <path
         id="path9905"
         d="m 220.92695,481.1506 0,37.47666"
         style="fill:none;stroke:#000000;stroke-width:1.5;stroke-linecap:butt;stroke-linejoin:miter;stroke-miterlimit:4;stroke-opacity:1;stroke-dasharray:none" />
      <path
         id="path9911"
         d="m 220.92695,144.78161 0,289.53053"
         style="fill:none;stroke:#ff0000;stroke-width:1.5;stroke-linecap:butt;stroke-linejoin:miter;stroke-miterlimit:4;stroke-opacity:1;stroke-dasharray:4.5, 4.5;stroke-dashoffset:0" />
      <path
         transform="matrix(-3.0914009,0,0,1.2520725,953.15536,4.8946176)"
         d="m 249.82997,60.095949 c -1.22363,7.121566 -8.38129,11.705214 -15.37869,10.450551 -7.86322,-1.40991 -12.91202,-9.337143 -11.47678,-17.07728 0.71448,-3.853086 2.93341,-7.335343 6.08293,-9.658343"
         sodipodi:t0="0.78142238"
         sodipodi:argument="-19.952009"
         sodipodi:radius="15.903322"
         sodipodi:revolution="2.8332489"
         sodipodi:expansion="1"
         sodipodi:cy="57.118767"
         sodipodi:cx="237.76465"
         id="path14355"
         style="fill:none;stroke:#000000;stroke-width:0.76242805;stroke-linecap:butt;stroke-linejoin:miter;stroke-miterlimit:4;stroke-opacity:1;stroke-dasharray:none;marker-start:url(#TriangleInM);marker-end:none"
         sodipodi:type="spiral" />
      <path
         style="fill:#ff0000;fill-opacity:0.38947365;fill-rule:evenodd;stroke:#ff0000;stroke-width:1px;stroke-linecap:butt;stroke-linejoin:miter;stroke-opacity:1"
         d="m 220.61732,142.50191 108.89444,35.35534 0,286.37825 -108.89444,-30.40559 0,-291.328 z"
         id="path19448" />
      <g
         id="g3056"
         ns0:preamble=""
         ns0:text="$\\Omega$"
         transform="matrix(2.5,0,0,2.5,-283.55843,-268.70057)">
        <defs
           id="defs3058">
          <g
             id="g3060">
            <symbol
               id="textext-25865dda-0"
               overflow="visible"
               style="overflow:visible">
              <path
                 id="path3063"
                 d=""
                 style="stroke:none" />
            </symbol>
            <symbol
               id="textext-25865dda-1"
               overflow="visible"
               style="overflow:visible">
              <path
                 id="path3066"
                 d="m 6.75,-1.609375 -0.25,0 c -0.046875,0.25 -0.09375,0.484375 -0.1875,0.71875 -0.046875,0.15625 -0.078125,0.25 -0.65625,0.25 l -0.796875,0 C 5,-1.203125 5.296875,-1.6875 5.75,-2.34375 c 0.46875,-0.703125 0.875,-1.390625 0.875,-2.1875 0,-1.375 -1.34375,-2.5 -3.03125,-2.5 -1.703125,0 -3.03125,1.140625 -3.03125,2.5 0,0.796875 0.40625,1.484375 0.875,2.1875 0.4375,0.65625 0.75,1.140625 0.890625,1.703125 l -0.796875,0 C 0.953125,-0.640625 0.921875,-0.734375 0.875,-0.875 0.78125,-1.109375 0.734375,-1.359375 0.6875,-1.609375 l -0.25,0 L 0.765625,0 2.359375,0 c 0.21875,0 0.25,0 0.25,-0.203125 0,-0.703125 -0.3125,-1.578125 -0.53125,-2.21875 -0.21875,-0.578125 -0.5,-1.359375 -0.5,-2.109375 0,-1.59375 1.109375,-2.28125 2.015625,-2.28125 0.953125,0 2.015625,0.71875 2.015625,2.28125 0,0.75 -0.28125,1.5 -0.5625,2.3125 -0.15625,0.421875 -0.46875,1.328125 -0.46875,2.015625 C 4.578125,0 4.609375,0 4.828125,0 L 6.421875,0 6.75,-1.609375 z m 0,0"
                 style="stroke:none" />
            </symbol>
          </g>
        </defs>
        <g
           id="textext-25865dda-2">
          <g
             id="g3069"
             style="fill:#000000;fill-opacity:1">
            <use
               id="use3071"
               y="134.765"
               x="223.43201"
               xlink:href="#textext-25865dda-1"
               width="295.25"
               height="474.83896" />
          </g>
        </g>
      </g>
      <path
         style="fill:#999999;stroke:#999999;stroke-width:1px;stroke-linecap:butt;stroke-linejoin:miter;stroke-opacity:1;marker-start:url(#TriangleInLg);marker-end:url(#TriangleOutLh)"
         d="m 83.654186,433.69601 128.287604,0"
         id="path3139" />
      <path
         style="fill:#999999;stroke:#999999;stroke-width:0.99999994;stroke-linecap:butt;stroke-linejoin:miter;stroke-miterlimit:4;stroke-opacity:1;stroke-dasharray:none;marker-start:url(#TriangleInLS);marker-end:url(#TriangleOutL7)"
         d="m 386.23852,432.54277 0,-280.2936"
         id="path4633"
         sodipodi:nodetypes="cc" />
      <g
         transform="matrix(2.5,0,0,2.5,-420.72852,121.91526)"
         ns0:text="$R$\n"
         ns0:preamble=""
         id="g5311">
        <defs
           id="defs5313">
          <g
             id="g5315">
            <symbol
               overflow="visible"
               id="textext-85f205da-0"
               style="overflow:visible">
              <path
                 style="stroke:none"
                 d=""
                 id="path5318" />
            </symbol>
            <symbol
               overflow="visible"
               id="textext-85f205da-1"
               style="overflow:visible">
              <path
                 style="stroke:none"
                 d="m 3.734375,-6.125 c 0.0625,-0.234375 0.09375,-0.328125 0.28125,-0.359375 C 4.109375,-6.5 4.421875,-6.5 4.625,-6.5 c 0.703125,0 1.8125,0 1.8125,0.984375 0,0.34375 -0.15625,1.03125 -0.546875,1.421875 -0.265625,0.25 -0.78125,0.578125 -1.6875,0.578125 l -1.109375,0 L 3.734375,-6.125 z m 1.4375,2.734375 c 1.015625,-0.21875 2.1875,-0.921875 2.1875,-1.921875 0,-0.859375 -0.890625,-1.5 -2.203125,-1.5 l -2.828125,0 c -0.203125,0 -0.296875,0 -0.296875,0.203125 C 2.03125,-6.5 2.125,-6.5 2.3125,-6.5 c 0.015625,0 0.203125,0 0.375,0.015625 0.1875,0.03125 0.265625,0.03125 0.265625,0.171875 0,0.03125 0,0.0625 -0.03125,0.1875 l -1.34375,5.34375 C 1.484375,-0.390625 1.46875,-0.3125 0.671875,-0.3125 0.5,-0.3125 0.40625,-0.3125 0.40625,-0.109375 0.40625,0 0.53125,0 0.546875,0 c 0.28125,0 0.984375,-0.03125 1.25,-0.03125 0.28125,0 1,0.03125 1.28125,0.03125 0.078125,0 0.1875,0 0.1875,-0.203125 0,-0.109375 -0.078125,-0.109375 -0.28125,-0.109375 -0.359375,0 -0.640625,0 -0.640625,-0.171875 0,-0.0625 0.015625,-0.109375 0.03125,-0.171875 l 0.65625,-2.640625 1.1875,0 c 0.90625,0 1.078125,0.5625 1.078125,0.90625 0,0.140625 -0.078125,0.453125 -0.140625,0.6875 C 5.09375,-1.421875 5,-1.0625 5,-0.859375 5,0.21875 6.203125,0.21875 6.328125,0.21875 c 0.84375,0 1.203125,-1 1.203125,-1.140625 0,-0.125 -0.109375,-0.125 -0.125,-0.125 -0.09375,0 -0.109375,0.0625 -0.125,0.140625 C 7.03125,-0.171875 6.59375,0 6.375,0 6.046875,0 5.96875,-0.21875 5.96875,-0.609375 c 0,-0.3125 0.0625,-0.8125 0.109375,-1.140625 0.015625,-0.140625 0.03125,-0.328125 0.03125,-0.46875 0,-0.765625 -0.671875,-1.078125 -0.9375,-1.171875 z m 0,0"
                 id="path5321" />
            </symbol>
          </g>
        </defs>
        <g
           id="textext-85f205da-2">
          <g
             style="fill:#000000;fill-opacity:1"
             id="g5324">
            <use
               xlink:href="#textext-85f205da-1"
               x="223.43201"
               y="134.765"
               id="use5326"
               width="295.25"
               height="474.83896" />
          </g>
        </g>
      </g>
      <g
         id="g5458"
         ns0:preamble=""
         ns0:text="$H$"
         transform="matrix(2.5,0,0,2.5,-161.22034,-37.648231)">
        <defs
           id="defs5460">
          <g
             id="g5462">
            <symbol
               id="textext-6a3acd85-0"
               overflow="visible"
               style="overflow:visible">
              <path
                 id="path5465"
                 d=""
                 style="stroke:none" />
            </symbol>
            <symbol
               id="textext-6a3acd85-1"
               overflow="visible"
               style="overflow:visible">
              <path
                 id="path5468"
                 d="M 7.609375,-6.046875 C 7.703125,-6.40625 7.71875,-6.5 8.4375,-6.5 c 0.265625,0 0.34375,0 0.34375,-0.203125 0,-0.109375 -0.109375,-0.109375 -0.140625,-0.109375 -0.28125,0 -1,0.03125 -1.28125,0.03125 -0.28125,0 -0.984375,-0.03125 -1.28125,-0.03125 -0.078125,0 -0.1875,0 -0.1875,0.203125 0,0.109375 0.09375,0.109375 0.28125,0.109375 0.015625,0 0.203125,0 0.375,0.015625 0.1875,0.03125 0.265625,0.03125 0.265625,0.171875 0,0.03125 0,0.046875 -0.03125,0.1875 l -0.59375,2.421875 -3.046875,0 0.59375,-2.34375 C 3.8125,-6.40625 3.84375,-6.5 4.5625,-6.5 c 0.265625,0 0.34375,0 0.34375,-0.203125 0,-0.109375 -0.109375,-0.109375 -0.140625,-0.109375 -0.28125,0 -1,0.03125 -1.28125,0.03125 -0.28125,0 -0.984375,-0.03125 -1.28125,-0.03125 -0.078125,0 -0.1875,0 -0.1875,0.203125 0,0.109375 0.09375,0.109375 0.28125,0.109375 0.015625,0 0.203125,0 0.375,0.015625 0.171875,0.03125 0.265625,0.03125 0.265625,0.171875 0,0.03125 0,0.0625 -0.03125,0.1875 L 1.5625,-0.78125 c -0.09375,0.390625 -0.109375,0.46875 -0.90625,0.46875 -0.171875,0 -0.265625,0 -0.265625,0.203125 C 0.390625,0 0.515625,0 0.53125,0 0.8125,0 1.515625,-0.03125 1.796875,-0.03125 2,-0.03125 2.21875,-0.015625 2.4375,-0.015625 2.65625,-0.015625 2.875,0 3.078125,0 3.15625,0 3.28125,0 3.28125,-0.203125 3.28125,-0.3125 3.1875,-0.3125 3,-0.3125 c -0.375,0 -0.640625,0 -0.640625,-0.171875 0,-0.0625 0.015625,-0.109375 0.015625,-0.171875 l 0.6875,-2.734375 3.03125,0 c -0.40625,1.65625 -0.640625,2.609375 -0.6875,2.75 C 5.3125,-0.3125 5.125,-0.3125 4.5,-0.3125 c -0.140625,0 -0.234375,0 -0.234375,0.203125 C 4.265625,0 4.390625,0 4.40625,0 4.6875,0 5.390625,-0.03125 5.671875,-0.03125 5.875,-0.03125 6.09375,-0.015625 6.3125,-0.015625 6.53125,-0.015625 6.75,0 6.953125,0 7.03125,0 7.15625,0 7.15625,-0.203125 7.15625,-0.3125 7.0625,-0.3125 6.875,-0.3125 c -0.359375,0 -0.640625,0 -0.640625,-0.171875 0,-0.0625 0.015625,-0.109375 0.03125,-0.171875 l 1.34375,-5.390625 z m 0,0"
                 style="stroke:none" />
            </symbol>
          </g>
        </defs>
        <g
           id="textext-6a3acd85-2">
          <g
             id="g5471"
             style="fill:#000000;fill-opacity:1">
            <use
               id="use5473"
               y="134.765"
               x="223.43201"
               xlink:href="#textext-6a3acd85-1"
               width="295.25"
               height="474.83896" />
          </g>
        </g>
      </g>
      <g
         transform="matrix(2.5,0,0,2.5,-453.96254,-100.40916)"
         ns0:text="$\\rho, \\mu$"
         ns0:preamble=""
         id="g5625">
        <defs
           id="defs5627">
          <g
             id="g5629">
            <symbol
               style="overflow:visible"
               overflow="visible"
               id="textext-f82ec605-0">
              <path
                 style="stroke:none"
                 d=""
                 id="path5632" />
            </symbol>
            <symbol
               style="overflow:visible"
               overflow="visible"
               id="textext-f82ec605-1">
              <path
                 style="stroke:none"
                 d="m 0.328125,1.71875 c -0.03125,0.125 -0.03125,0.140625 -0.03125,0.171875 0,0.140625 0.109375,0.265625 0.28125,0.265625 0.203125,0 0.328125,-0.1875 0.34375,-0.21875 0.0625,-0.078125 0.375,-1.421875 0.640625,-2.5 0.203125,0.40625 0.515625,0.671875 0.984375,0.671875 C 3.71875,0.109375 5,-1.296875 5,-2.78125 c 0,-1.0625 -0.65625,-1.625 -1.375,-1.625 -0.96875,0 -2.015625,1 -2.3125,2.21875 L 0.328125,1.71875 z m 2.21875,-1.828125 C 1.84375,-0.109375 1.6875,-0.90625 1.6875,-1 c 0,-0.03125 0.046875,-0.234375 0.078125,-0.359375 0.28125,-1.125 0.375,-1.484375 0.59375,-1.875 0.4375,-0.734375 0.9375,-0.953125 1.234375,-0.953125 0.375,0 0.6875,0.296875 0.6875,0.984375 0,0.546875 -0.28125,1.65625 -0.546875,2.140625 -0.328125,0.640625 -0.8125,0.953125 -1.1875,0.953125 z m 0,0"
                 id="path5635" />
            </symbol>
            <symbol
               style="overflow:visible"
               overflow="visible"
               id="textext-f82ec605-2">
              <path
                 style="stroke:none"
                 d="m 2.03125,-0.015625 c 0,-0.65625 -0.25,-1.046875 -0.640625,-1.046875 -0.328125,0 -0.53125,0.25 -0.53125,0.53125 C 0.859375,-0.265625 1.0625,0 1.390625,0 1.5,0 1.640625,-0.046875 1.734375,-0.125 1.765625,-0.15625 1.78125,-0.15625 1.78125,-0.15625 c 0.015625,0 0.015625,0 0.015625,0.140625 0,0.75 -0.34375,1.34375 -0.671875,1.671875 -0.109375,0.109375 -0.109375,0.125 -0.109375,0.15625 0,0.078125 0.046875,0.109375 0.09375,0.109375 0.109375,0 0.921875,-0.765625 0.921875,-1.9375 z m 0,0"
                 id="path5638" />
            </symbol>
            <symbol
               style="overflow:visible"
               overflow="visible"
               id="textext-f82ec605-3">
              <path
                 style="stroke:none"
                 d="m 2.296875,-3.5 c 0.0625,-0.203125 0.15625,-0.59375 0.15625,-0.640625 0,-0.171875 -0.125,-0.265625 -0.296875,-0.265625 -0.015625,0 -0.296875,0.015625 -0.390625,0.359375 l -1.4375,5.765625 c -0.03125,0.125 -0.03125,0.140625 -0.03125,0.171875 0,0.140625 0.109375,0.265625 0.28125,0.265625 0.203125,0 0.328125,-0.1875 0.34375,-0.21875 C 0.96875,1.859375 1.09375,1.328125 1.46875,-0.203125 1.796875,0.0625 2.25,0.109375 2.4375,0.109375 c 0.703125,0 1.09375,-0.453125 1.328125,-0.734375 0.09375,0.453125 0.46875,0.734375 0.90625,0.734375 0.34375,0 0.578125,-0.234375 0.734375,-0.546875 0.171875,-0.359375 0.296875,-0.96875 0.296875,-0.984375 0,-0.109375 -0.09375,-0.109375 -0.125,-0.109375 -0.09375,0 -0.109375,0.046875 -0.140625,0.1875 -0.15625,0.640625 -0.34375,1.234375 -0.75,1.234375 -0.265625,0 -0.296875,-0.265625 -0.296875,-0.453125 0,-0.21875 0.109375,-0.6875 0.1875,-1.046875 L 4.859375,-2.6875 C 4.890625,-2.828125 5,-3.203125 5.03125,-3.359375 5.078125,-3.59375 5.1875,-3.96875 5.1875,-4.03125 c 0,-0.171875 -0.140625,-0.265625 -0.296875,-0.265625 -0.046875,0 -0.3125,0.015625 -0.390625,0.34375 l -0.46875,1.875 c -0.109375,0.5 -0.21875,0.90625 -0.25,1.015625 -0.015625,0.046875 -0.484375,0.953125 -1.296875,0.953125 -0.5,0 -0.734375,-0.328125 -0.734375,-0.875 0,-0.28125 0.0625,-0.5625 0.140625,-0.84375 L 2.296875,-3.5 z m 0,0"
                 id="path5641" />
            </symbol>
          </g>
        </defs>
        <g
           id="textext-f82ec605-4">
          <g
             style="fill:#000000;fill-opacity:1"
             id="g5644">
            <use
               height="474.83896"
               width="295.25"
               xlink:href="#textext-f82ec605-1"
               x="223.43201"
               y="134.765"
               id="use5646" />
            <use
               height="474.83896"
               width="295.25"
               xlink:href="#textext-f82ec605-2"
               x="228.58266"
               y="134.765"
               id="use5648" />
          </g>
          <g
             style="fill:#000000;fill-opacity:1"
             id="g5650">
            <use
               height="474.83896"
               width="295.25"
               xlink:href="#textext-f82ec605-3"
               x="233.01402"
               y="134.765"
               id="use5652" />
          </g>
        </g>
      </g>
    </g>
  </g>
</svg>
