<?xml version="1.0" encoding="UTF-8" standalone="no"?>
<!-- Created with Inkscape (http://www.inkscape.org/) -->

<svg
   xmlns:dc="http://purl.org/dc/elements/1.1/"
   xmlns:cc="http://creativecommons.org/ns#"
   xmlns:rdf="http://www.w3.org/1999/02/22-rdf-syntax-ns#"
   xmlns:svg="http://www.w3.org/2000/svg"
   xmlns="http://www.w3.org/2000/svg"
   xmlns:sodipodi="http://sodipodi.sourceforge.net/DTD/sodipodi-0.dtd"
   xmlns:inkscape="http://www.inkscape.org/namespaces/inkscape"
   width="673.74567mm"
   height="123.20838mm"
   viewBox="0 0 2387.2878 436.56513"
   id="svg5707"
   version="1.1"
   inkscape:version="0.91 r13725"
   sodipodi:docname="logo2.svg">
  <defs
     id="defs5709" />
  <sodipodi:namedview
     id="base"
     pagecolor="#ffffff"
     bordercolor="#666666"
     borderopacity="1.0"
     inkscape:pageopacity="0.0"
     inkscape:pageshadow="2"
     inkscape:zoom="0.175"
     inkscape:cx="1455.1422"
     inkscape:cy="-353.94027"
     inkscape:document-units="px"
     inkscape:current-layer="layer1"
     showgrid="false"
     fit-margin-top="0"
     fit-margin-left="0"
     fit-margin-right="0"
     fit-margin-bottom="0"
     inkscape:window-width="1366"
     inkscape:window-height="699"
     inkscape:window-x="0"
     inkscape:window-y="32"
     inkscape:window-maximized="1" />
  <metadata
     id="metadata5712">
    <rdf:RDF>
      <cc:Work
         rdf:about="">
        <dc:format>image/svg+xml</dc:format>
        <dc:type
           rdf:resource="http://purl.org/dc/dcmitype/StillImage" />
        <dc:title></dc:title>
      </cc:Work>
    </rdf:RDF>
  </metadata>
  <g
     inkscape:label="Layer 1"
     inkscape:groupmode="layer"
     id="layer1"
     transform="translate(1710.7868,-36.936777)">
    <circle
       inkscape:export-ydpi="6.1846433"
       inkscape:export-xdpi="6.1846433"
       r="192.14285"
       cy="263.0137"
       cx="-1518.6439"
       id="path4156-4"
       style="fill:#008000;fill-opacity:1;stroke:none;stroke-width:0.5;stroke-linecap:round;stroke-linejoin:round;stroke-miterlimit:4;stroke-dasharray:none;stroke-dashoffset:0;stroke-opacity:1"
       inkscape:export-filename="/home/jondea/Pictures/logo2.png" />
    <path
       inkscape:export-ydpi="6.1846433"
       inkscape:export-xdpi="6.1846433"
       transform="matrix(0.76887031,0,0,0.98162977,-1846.1045,28.005869)"
       d="m 389.67578,141.27344 c -49.54154,0.10267 -97.81066,18.80025 -122.73242,54.26562 a 4.702478,4.702478 0 0 0 1.68164,6.87696 c 23.73743,12.32358 47.47411,24.64946 71.21094,36.9746 -23.40648,12.3509 -47.21607,24.0057 -71.11133,35.6543 a 4.702478,4.702478 0 0 0 -1.73047,7.00977 c 12.24941,16.68611 32.62175,29.61572 53.79297,38.63476 21.29702,9.07263 45.98807,14.08473 71.75195,14.08594 55.91827,-2.5e-4 104.32222,-23.08224 126.31641,-57.58203 l 57.76562,38.67578 a 4.702478,4.702478 0 0 0 7.31641,-3.90625 l 0,-149.49023 a 4.702478,4.702478 0 0 0 -7.31641,-3.90625 l -57.95898,38.80664 c -31.13825,-38.56607 -80.8876,-56.19929 -128.98633,-56.09961 z"
       id="path4152-4"
       style="fill:#ffffff;fill-opacity:1;stroke:none;stroke-width:1;stroke-linecap:round;stroke-linejoin:round;stroke-miterlimit:4;stroke-dasharray:none;stroke-dashoffset:0;stroke-opacity:1"
       inkscape:original="M 389.68555 145.97461 C 341.33225 146.07482 294.50121 164.50096 270.79102 198.24219 C 297.21738 211.96177 323.64285 225.68308 350.06836 239.4043 C 324.01154 253.43564 297.37958 266.30707 270.78516 279.27148 C 282.2293 294.86065 301.96655 307.56018 322.63086 316.36328 C 343.29517 325.16637 367.38654 330.07304 392.53906 330.07422 C 449.41899 330.07397 498.01047 305.39306 517.42773 270.58008 L 579.23633 311.96289 L 579.23633 162.47266 L 517.71484 203.66406 C 487.91439 164.10014 438.03884 145.8744 389.68555 145.97461 z "
       inkscape:radius="4.7020078"
       sodipodi:type="inkscape:offset"
       inkscape:export-filename="/home/jondea/Pictures/logo2.png" />
    <path
       d="m -1162.1101,153.7569 q -36.3774,0 -57.5156,28.512 -21.1382,28.26621 -21.1382,77.67064 0,49.40443 20.8924,77.91642 21.1382,28.26622 57.7614,28.26622 36.1316,0 57.2698,-28.51201 21.1382,-28.512 21.1382,-77.67063 0,-48.91284 -21.1382,-77.42485 -21.1382,-28.75779 -57.2698,-28.75779 z m 0,-38.34374 q 58.9904,0 92.664,38.34374 33.6737,38.34373 33.6737,106.18264 0,67.59312 -33.6737,106.18264 -33.6736,38.34373 -92.664,38.34373 -59.2362,0 -92.9098,-38.34373 -33.4279,-38.58952 -33.4279,-106.18264 0,-67.83891 33.4279,-106.18264 33.6736,-38.34374 92.9098,-38.34374 z"
       style="font-style:normal;font-weight:normal;font-size:375px;line-height:125%;font-family:sans-serif;letter-spacing:-60px;word-spacing:0px;fill:#008000;fill-opacity:1;stroke:#008000;stroke-width:13.42358398;stroke-linecap:butt;stroke-linejoin:round;stroke-miterlimit:4;stroke-dasharray:none;stroke-opacity:1"
       id="path4203-1"
       inkscape:connector-curvature="0"
       inkscape:export-filename="/home/jondea/Pictures/logo2.png"
       inkscape:export-xdpi="6.1846433"
       inkscape:export-ydpi="6.1846433" />
    <path
       d="m -904.23608,153.7569 q -36.37739,0 -57.5156,28.512 -21.13821,28.26621 -21.13821,77.67064 0,49.40443 20.89241,77.91642 21.13821,28.26622 57.7614,28.26622 36.13159,0 57.2698,-28.51201 21.13821,-28.512 21.13821,-77.67063 0,-48.91284 -21.13821,-77.42485 -21.13821,-28.75779 -57.2698,-28.75779 z m 0,-38.34374 q 58.99036,0 92.66402,38.34374 33.67367,38.34373 33.67367,106.18264 0,67.59312 -33.67367,106.18264 -33.67366,38.34373 -92.66402,38.34373 -59.23615,0 -92.90981,-38.34373 -33.42791,-38.58952 -33.42791,-106.18264 0,-67.83891 33.42791,-106.18264 33.67366,-38.34374 92.90981,-38.34374 z"
       style="font-style:normal;font-weight:normal;font-size:375px;line-height:125%;font-family:sans-serif;letter-spacing:-60px;word-spacing:0px;fill:#008000;fill-opacity:1;stroke:#008000;stroke-width:13.42358398;stroke-linecap:butt;stroke-linejoin:round;stroke-miterlimit:4;stroke-dasharray:none;stroke-opacity:1"
       id="path4205-5"
       inkscape:connector-curvature="0"
       inkscape:export-filename="/home/jondea/Pictures/logo2.png"
       inkscape:export-xdpi="6.1846433"
       inkscape:export-ydpi="6.1846433" />
    <path
       d="m -557.8812,174.8951 q 16.9597,-30.47835 40.5558,-44.98015 23.5962,-14.50179 55.5493,-14.50179 43.0138,0 66.3642,30.23256 23.3503,29.98676 23.3503,85.53602 l 0,166.15617 -45.4717,0 0,-164.68141 q 0,-39.5727 -14.0102,-58.74457 -14.0103,-19.17186 -42.768,-19.17186 -35.1485,0 -55.5493,23.35034 -20.4008,23.35035 -20.4008,63.66043 l 0,155.58707 -45.4718,0 0,-164.68141 q 0,-39.8185 -14.0102,-58.74457 -14.0102,-19.17186 -43.2596,-19.17186 -34.6568,0 -55.0576,23.59613 -20.40086,23.35036 -20.40086,63.41464 l 0,155.58707 -45.47174,0 0,-275.28834 45.47174,0 0,42.76801 q 15.48497,-25.31668 37.11476,-37.36055 21.6298,-12.04387 51.3708,-12.04387 29.9867,0 50.8792,15.23917 21.1382,15.23919 31.2157,44.24277 z"
       style="font-style:normal;font-weight:normal;font-size:375px;line-height:125%;font-family:sans-serif;letter-spacing:-60px;word-spacing:0px;fill:#008000;fill-opacity:1;stroke:#008000;stroke-width:13.42358398;stroke-linecap:butt;stroke-linejoin:round;stroke-miterlimit:4;stroke-dasharray:none;stroke-opacity:1"
       id="path4207-9"
       inkscape:connector-curvature="0"
       inkscape:export-filename="/home/jondea/Pictures/logo2.png"
       inkscape:export-xdpi="6.1846433"
       inkscape:export-ydpi="6.1846433" />
    <path
       sodipodi:nodetypes="cccccccscscsccscscscscs"
       d="m -308.4827,356.04466 0,110.74547 -45.4718,0 0,-344.74056 45.4718,0 0,41.78484 c 9.504,-16.3862 21.4659,-28.51201 35.8858,-36.37738 14.5837,-8.02925 31.9531,-12.04387 52.1081,-12.04387 33.4279,0 60.547,13.27283 81.3575,39.81849 20.9744,26.54566 31.4615,61.44828 31.4615,104.70789 0,43.25959 -10.4871,78.16222 -31.4615,104.70788 -20.8105,26.54566 -47.9296,39.81849 -81.3575,39.81849 -20.155,0 -37.5244,-3.9327 -52.1081,-11.79807 -14.4199,-8.02925 -26.3818,-20.23698 -35.8858,-36.62318 z m 153.8665,-96.10512 c 0,-33.264 -6.8822,-59.31808 -20.6467,-78.16223 -13.6005,-19.00801 -32.3627,-28.51201 -56.2866,-28.51201 -23.9239,0 -42.768,9.504 -56.5324,28.51201 -13.6006,18.84415 -20.4008,44.89823 -20.4008,78.16223 0,33.264 6.8002,59.40001 20.4008,78.40801 13.7644,18.84415 32.6085,28.26621 56.5324,28.26621 23.9239,0 42.6861,-9.42206 56.2866,-28.26621 13.7645,-19.008 20.6467,-45.14401 20.6467,-78.40801 z"
       style="font-style:normal;font-weight:normal;font-size:375px;line-height:125%;font-family:sans-serif;letter-spacing:-60px;word-spacing:0px;fill:#008000;fill-opacity:1;stroke:#008000;stroke-width:13.42358398;stroke-linecap:butt;stroke-linejoin:round;stroke-miterlimit:4;stroke-dasharray:none;stroke-opacity:1"
       id="path4209-9"
       inkscape:connector-curvature="0"
       inkscape:export-filename="/home/jondea/Pictures/logo2.png"
       inkscape:export-xdpi="6.1846433"
       inkscape:export-ydpi="6.1846433" />
    <path
       sodipodi:nodetypes="sccsssssccccccscs"
       d="m 134.7658,231.18174 0,166.15617 -45.226003,0 0,-164.68141 c 0,-26.05408 -5.0797,-45.55367 -15.2391,-58.49877 -10.1595,-12.9451 -25.3986,-19.41766 -45.7176,-19.41766 -24.4154001,0 -43.6692,7.78345 -57.7614,23.35034 -14.0922,15.5669 -21.1383,36.78705 -21.1383,63.66043 l 0,155.58707 -45.4718,0 0,-353.689341 45.4718,0 0,121.169011 c 10.815,-16.55007 23.5143,-28.92166 38.0981,-37.11476 14.7475999,-8.1931 31.7073,-12.28966 50.8791,-12.28966 31.6255,0 55.5493,9.83173 71.771703,29.49519 16.2223,19.49958 24.3335,48.25739 24.3335,86.27339 z"
       style="font-style:normal;font-weight:normal;font-size:375px;line-height:125%;font-family:sans-serif;letter-spacing:-60px;word-spacing:0px;fill:#008000;fill-opacity:1;stroke:#008000;stroke-width:13.42358398;stroke-linecap:butt;stroke-linejoin:round;stroke-miterlimit:4;stroke-dasharray:none;stroke-opacity:1"
       id="path4211-1"
       inkscape:connector-curvature="0"
       inkscape:export-filename="/home/jondea/Pictures/logo2.png"
       inkscape:export-xdpi="6.1846433"
       inkscape:export-ydpi="6.1846433" />
    <path
       d="m 100.3674,239.29292 132.4826,0 0,40.31006 -132.4826,0 0,-40.31006 z"
       style="font-style:normal;font-weight:normal;font-size:375px;line-height:125%;font-family:sans-serif;letter-spacing:-60px;word-spacing:0px;fill:#008000;fill-opacity:1;stroke:#008000;stroke-width:13.42358398;stroke-linecap:butt;stroke-linejoin:round;stroke-miterlimit:4;stroke-dasharray:none;stroke-opacity:1"
       id="path4213-0"
       inkscape:connector-curvature="0"
       inkscape:export-filename="/home/jondea/Pictures/logo2.png"
       inkscape:export-xdpi="6.1846433"
       inkscape:export-ydpi="6.1846433" />
    <path
       sodipodi:nodetypes="ccccc"
       d="m 222.7103,47.483869 45.2259,0 0,349.854041 -45.2259,0 z"
       style="font-style:normal;font-weight:normal;font-size:375px;line-height:125%;font-family:sans-serif;letter-spacing:-60px;word-spacing:0px;fill:#008000;fill-opacity:1;stroke:#008000;stroke-width:13.42358398;stroke-linecap:butt;stroke-linejoin:round;stroke-miterlimit:4;stroke-dasharray:none;stroke-opacity:1"
       id="path4215-1"
       inkscape:connector-curvature="0"
       inkscape:export-filename="/home/jondea/Pictures/logo2.png"
       inkscape:export-xdpi="6.1846433"
       inkscape:export-ydpi="6.1846433" />
    <path
       sodipodi:nodetypes="cccccccccc"
       d="m 323.9677,154.6497 45.2258,0 0,242.68821 -45.2258,0 z m 0,-107.165831 45.2258,0 0,57.269821 -45.2258,0 z"
       style="font-style:normal;font-weight:normal;font-size:375px;line-height:125%;font-family:sans-serif;letter-spacing:-60px;word-spacing:0px;fill:#008000;fill-opacity:1;stroke:#008000;stroke-width:13.42358398;stroke-linecap:butt;stroke-linejoin:round;stroke-miterlimit:4;stroke-dasharray:none;stroke-opacity:1"
       id="path4217-9"
       inkscape:connector-curvature="0"
       inkscape:export-filename="/home/jondea/Pictures/logo2.png"
       inkscape:export-xdpi="6.1846433"
       inkscape:export-ydpi="6.1846433" />
    <path
       sodipodi:nodetypes="scscscscsccscscsccccccc"
       d="m 622.8429,259.93954 c 0,-33.264 -6.8822,-59.31808 -20.6466,-78.16223 -13.6006,-19.00801 -32.3627,-28.51201 -56.2866,-28.51201 -23.9239,0 -42.7681,9.504 -56.5325,28.51201 -13.6007,18.84415 -20.4009,44.89823 -20.4009,78.16223 0,33.264 6.8002,59.40001 20.4009,78.40801 13.7644,18.84415 32.6086,28.26621 56.5325,28.26621 23.9239,0 42.686,-9.42206 56.2866,-28.26621 13.7644,-19.008 20.6466,-45.14401 20.6466,-78.40801 z M 468.9763,163.83441 c 9.5041,-16.3862 21.4661,-28.51201 35.8858,-36.37738 14.5837,-8.02925 31.9531,-12.04387 52.1082,-12.04387 33.4278,0 60.5471,13.27283 81.3575,39.81849 20.9744,26.54566 31.4615,61.44828 31.4615,104.70789 0,43.25959 -10.4871,78.16222 -31.4615,104.70788 -20.8104,26.54566 -47.9297,39.81849 -81.3575,39.81849 -20.1551,0 -37.5245,-3.9327 -52.1082,-11.79807 -14.4197,-8.02925 -26.3817,-20.23698 -35.8858,-36.62318 l 0,41.29325 -45.4718,0 0,-349.854041 45.4718,0 z"
       style="font-style:normal;font-weight:normal;font-size:375px;line-height:125%;font-family:sans-serif;letter-spacing:-60px;word-spacing:0px;fill:#008000;fill-opacity:1;stroke:#008000;stroke-width:13.42358398;stroke-linecap:butt;stroke-linejoin:round;stroke-miterlimit:4;stroke-dasharray:none;stroke-opacity:1"
       id="path4219-0"
       inkscape:connector-curvature="0"
       inkscape:export-filename="/home/jondea/Pictures/logo2.png"
       inkscape:export-xdpi="6.1846433"
       inkscape:export-ydpi="6.1846433" />
  </g>
</svg>
