<?xml version="1.0" standalone="no"?>
<!DOCTYPE svg PUBLIC "-//W3C//DTD SVG 20010904//EN"
 "http://www.w3.org/TR/2001/REC-SVG-20010904/DTD/svg10.dtd">
<svg version="1.0" xmlns="http://www.w3.org/2000/svg"
 width="120.000000pt" height="120.000000pt" viewBox="0 0 120.000000 120.000000"
 preserveAspectRatio="xMidYMid meet">
<metadata>
Created by potrace 1.11, written by Peter Selinger 2001-2013
</metadata>
<g transform="translate(0.000000,120.000000) scale(0.100000,-0.100000)"
fill="#000000" stroke="none">
<path d="M236 1167 c-39 -42 -115 -174 -138 -241 -44 -129 -5 -199 113 -203
102 -2 199 48 248 128 l21 34 0 -46 c0 -56 25 -93 76 -109 115 -38 298 54 321
160 19 89 -7 160 -90 245 -62 63 -97 76 -134 48 -31 -23 -125 -175 -151 -244
l-18 -50 0 53 c-1 63 -24 112 -84 181 -43 49 -86 77 -116 77 -9 0 -31 -15 -48
-33z m98 -136 c38 -54 46 -90 29 -123 -19 -39 -71 -64 -147 -73 -27 -3 -28 -1
-22 29 9 44 97 206 112 206 0 0 13 -17 28 -39z m409 -13 c63 -97 22 -159 -122
-183 -33 -6 -34 -6 -27 27 11 57 90 198 110 198 6 0 24 -19 39 -42z"/>
<path d="M848 782 c-14 -3 -15 -8 -8 -28 6 -14 10 -71 10 -126 l0 -101 -22 33
c-35 51 -79 69 -158 67 -67 -3 -68 -3 -59 20 9 23 9 23 -63 18 -39 -2 -73 -6
-75 -9 -3 -2 0 -13 6 -24 6 -11 14 -124 17 -258 9 -307 9 -294 2 -329 l-6 -30
73 -2 74 -2 -13 37 c-6 20 -12 50 -11 67 1 26 5 31 35 36 48 7 73 22 102 61
34 45 58 93 79 158 l18 55 2 -40 c2 -62 1 -208 -3 -229 -3 -18 4 -20 66 -24
63 -3 68 -2 62 15 -4 10 -10 86 -12 169 l-5 152 27 21 c39 31 57 23 70 -29 15
-60 8 -251 -11 -295 -10 -26 -11 -35 -2 -36 7 0 21 -2 32 -4 11 -2 39 -7 63
-10 42 -5 43 -5 37 16 -4 13 -7 43 -6 68 10 224 3 301 -30 361 -12 21 -32 44
-45 51 -27 14 -78 17 -113 5 l-24 -8 5 90 4 90 -51 -1 c-28 -1 -58 -3 -67 -5z
m-114 -284 c19 -31 -39 -194 -77 -218 -35 -22 -46 5 -50 122 -4 120 -7 115 72
114 30 -1 47 -6 55 -18z"/>
<path d="M44 415 c-1 -113 -4 -230 -8 -260 l-6 -55 68 6 c37 3 68 7 70 9 2 2
-2 13 -8 26 -18 33 -6 217 15 238 14 14 17 14 26 1 11 -17 0 -161 -16 -208 -2
-6 1 -12 8 -13 7 -1 31 -3 55 -5 23 -2 42 0 43 4 0 4 2 14 4 23 1 8 5 54 8
102 9 126 36 166 58 85 11 -42 7 -175 -6 -209 -9 -23 1 -27 74 -33 56 -5 62
-4 56 12 -7 20 -12 70 -20 197 -7 137 -24 202 -60 239 -24 24 -72 20 -100 -8
-23 -23 -24 -23 -41 -5 -21 23 -67 25 -84 4 -18 -22 -21 -14 -11 23 l10 32
-67 0 -67 0 -1 -205z"/>
</g>
</svg>
