<?xml version="1.0" standalone="no"?>
<!DOCTYPE svg PUBLIC "-//W3C//DTD SVG 20010904//EN"
 "http://www.w3.org/TR/2001/REC-SVG-20010904/DTD/svg10.dtd">
<svg version="1.0" xmlns="http://www.w3.org/2000/svg"
 width="512.000000pt" height="512.000000pt" viewBox="0 0 512.000000 512.000000"
 preserveAspectRatio="xMidYMid meet">
<metadata>
Created by potrace 1.11, written by Peter Selinger 2001-2013
</metadata>
<g transform="translate(0.000000,512.000000) scale(0.100000,-0.100000)"
fill="#000000" stroke="none">
<path d="M2315 5109 c-798 -82 -1502 -519 -1927 -1196 -604 -960 -491 -2230
272 -3065 415 -454 931 -729 1550 -825 161 -25 539 -25 700 0 488 76 921 266
1274 559 508 423 824 995 918 1663 16 119 17 514 0 630 -58 403 -201 788 -410
1100 -411 613 -1033 1006 -1772 1120 -126 19 -477 28 -605 14z m112 -1285
c242 -35 473 -129 675 -274 92 -66 286 -263 352 -357 l58 -83 101 87 c517 443
505 433 518 433 5 0 18 -9 29 -20 20 -20 20 -33 20 -1018 0 -887 -2 -1000 -16
-1020 -8 -12 -23 -22 -32 -22 -9 0 -152 116 -317 257 -261 224 -300 254 -310
238 -152 -256 -336 -435 -575 -559 -442 -230 -971 -230 -1420 0 -203 103 -393
258 -510 415 -69 93 -87 132 -73 162 6 13 84 69 184 132 300 188 559 357 559
365 0 4 -162 114 -361 245 -198 131 -368 249 -376 262 -21 32 -13 54 56 159
173 263 475 478 784 560 203 54 452 68 654 38z"/>
</g>
</svg>
